# xmcd
#
# Track frame offsets: 
#        150
#        17614
#        35063
#        51149
#        69555
#        83639
#        97272
#        115289
#        131809
#        150372
#        173036
#        186951
#        203201
#        220228
#
# Disc length: 3120 seconds
#
# Revision: 2
# Processed by: cddbd v1.5.2PL0 Copyright (c) Steve Scherf et al.
# Submitted via: ExactAudioCopyFreeDBPlugin 1.0
#
DISCID=c40c2e0e
DTITLE=Athena - Peeling Apples
DYEAR=2010
DGENRE=
TTITLE0=Finding England
TTITLE1=All Over Again
TTITLE2=Looking At Me Looking At You
TTITLE3=Peeling Apples
TTITLE4=Little Jane
TTITLE5=I'll Never Know
TTITLE6=Set In Stone
TTITLE7=Tears Are Only Water
TTITLE8=The Wrestler's Mask
TTITLE9=Love Will Conquer Everything
TTITLE10=My Doubting Tom
TTITLE11=Someone Else Can
TTITLE12=You Can't Blackmail Love
TTITLE13=I Know
EXTD=
EXTT0=
EXTT1=
EXTT2=
EXTT3=
EXTT4=
EXTT5=
EXTT6=
EXTT7=
EXTT8=
EXTT9=
EXTT10=
EXTT11=
EXTT12=
EXTT13=
PLAYORDER=
